<mxfile host="app.diagrams.net" modified="2024-10-09T20:37:25.357Z" agent="Mozilla/5.0 (Windows NT 10.0; Win64; x64) AppleWebKit/537.36 (KHTML, like Gecko) Chrome/127.0.0.0 Safari/537.36 OPR/113.0.0.0" etag="Z9wf7PbpzKCnD5aAOfok" version="24.4.13" type="device">
  <diagram name="Страница — 1" id="5E-G4Now_tC-e3OiuwLp">
    <mxGraphModel dx="2460" dy="763" grid="1" gridSize="10" guides="1" tooltips="1" connect="1" arrows="1" fold="1" page="1" pageScale="1" pageWidth="827" pageHeight="1169" math="0" shadow="0">
      <root>
        <mxCell id="0" />
        <mxCell id="1" parent="0" />
        <mxCell id="jnzo3z-kXBf-AsIeAFTz-1" value="User" style="shape=umlActor;verticalLabelPosition=bottom;verticalAlign=top;html=1;outlineConnect=0;" parent="1" vertex="1">
          <mxGeometry x="-360" y="450" width="30" height="60" as="geometry" />
        </mxCell>
        <mxCell id="jnzo3z-kXBf-AsIeAFTz-26" value="Отображается шкала прогресса" style="ellipse;whiteSpace=wrap;html=1;" parent="1" vertex="1">
          <mxGeometry x="-30" y="710" width="120" height="80" as="geometry" />
        </mxCell>
        <mxCell id="jnzo3z-kXBf-AsIeAFTz-30" value="Выводится&amp;nbsp; калорийность на 100 грамм" style="ellipse;whiteSpace=wrap;html=1;" parent="1" vertex="1">
          <mxGeometry x="140" y="200" width="120" height="80" as="geometry" />
        </mxCell>
        <mxCell id="jnzo3z-kXBf-AsIeAFTz-33" value="Отображается количество БЖУ от поставленной нормы&amp;nbsp;" style="ellipse;whiteSpace=wrap;html=1;" parent="1" vertex="1">
          <mxGeometry x="40" y="600" width="120" height="90" as="geometry" />
        </mxCell>
        <mxCell id="jnzo3z-kXBf-AsIeAFTz-34" value="Ставит ежедневную цель" style="ellipse;whiteSpace=wrap;html=1;" parent="1" vertex="1">
          <mxGeometry x="-180" y="590" width="120" height="80" as="geometry" />
        </mxCell>
        <mxCell id="jnzo3z-kXBf-AsIeAFTz-35" value="Рассчитывается калорийность блюд" style="ellipse;whiteSpace=wrap;html=1;" parent="1" vertex="1">
          <mxGeometry x="-120" y="430" width="120" height="80" as="geometry" />
        </mxCell>
        <mxCell id="jnzo3z-kXBf-AsIeAFTz-36" value="Вводит вес блюд" style="ellipse;whiteSpace=wrap;html=1;" parent="1" vertex="1">
          <mxGeometry x="90" y="450" width="120" height="80" as="geometry" />
        </mxCell>
        <mxCell id="jnzo3z-kXBf-AsIeAFTz-41" value="" style="endArrow=none;html=1;rounded=0;" parent="1" source="jnzo3z-kXBf-AsIeAFTz-34" target="Xbeqn3pjJ_idt0biBpDb-9" edge="1">
          <mxGeometry width="50" height="50" relative="1" as="geometry">
            <mxPoint x="-250" y="580" as="sourcePoint" />
            <mxPoint x="-20" y="680" as="targetPoint" />
          </mxGeometry>
        </mxCell>
        <mxCell id="jnzo3z-kXBf-AsIeAFTz-58" value="Вводит блюда из БД блюд" style="ellipse;whiteSpace=wrap;html=1;" parent="1" vertex="1">
          <mxGeometry x="40" y="330" width="120" height="80" as="geometry" />
        </mxCell>
        <mxCell id="kVgBxiJM-KrMWndX5PiG-1" value="" style="endArrow=none;dashed=1;html=1;dashPattern=1 3;strokeWidth=2;rounded=0;endFill=0;startArrow=classic;startFill=1;" parent="1" source="jnzo3z-kXBf-AsIeAFTz-58" target="jnzo3z-kXBf-AsIeAFTz-30" edge="1">
          <mxGeometry width="50" height="50" relative="1" as="geometry">
            <mxPoint x="324" y="400" as="sourcePoint" />
            <mxPoint x="504" y="460" as="targetPoint" />
          </mxGeometry>
        </mxCell>
        <mxCell id="kVgBxiJM-KrMWndX5PiG-6" value="" style="endArrow=none;dashed=1;html=1;dashPattern=1 3;strokeWidth=2;rounded=0;" parent="1" source="jnzo3z-kXBf-AsIeAFTz-34" target="jnzo3z-kXBf-AsIeAFTz-26" edge="1">
          <mxGeometry width="50" height="50" relative="1" as="geometry">
            <mxPoint x="30" y="540" as="sourcePoint" />
            <mxPoint x="150" y="650" as="targetPoint" />
          </mxGeometry>
        </mxCell>
        <mxCell id="Xbeqn3pjJ_idt0biBpDb-3" value="" style="endArrow=none;html=1;rounded=0;" edge="1" parent="1" source="Xbeqn3pjJ_idt0biBpDb-9" target="jnzo3z-kXBf-AsIeAFTz-1">
          <mxGeometry width="50" height="50" relative="1" as="geometry">
            <mxPoint x="240" y="570" as="sourcePoint" />
            <mxPoint x="40" y="480" as="targetPoint" />
          </mxGeometry>
        </mxCell>
        <mxCell id="Xbeqn3pjJ_idt0biBpDb-4" value="" style="endArrow=none;dashed=1;html=1;dashPattern=1 3;strokeWidth=2;rounded=0;" edge="1" parent="1" source="jnzo3z-kXBf-AsIeAFTz-58" target="jnzo3z-kXBf-AsIeAFTz-35">
          <mxGeometry width="50" height="50" relative="1" as="geometry">
            <mxPoint x="140" y="260" as="sourcePoint" />
            <mxPoint x="260" y="370" as="targetPoint" />
          </mxGeometry>
        </mxCell>
        <mxCell id="Xbeqn3pjJ_idt0biBpDb-5" value="" style="endArrow=none;dashed=1;html=1;dashPattern=1 3;strokeWidth=2;rounded=0;" edge="1" parent="1" source="jnzo3z-kXBf-AsIeAFTz-35" target="jnzo3z-kXBf-AsIeAFTz-36">
          <mxGeometry width="50" height="50" relative="1" as="geometry">
            <mxPoint x="10" y="510" as="sourcePoint" />
            <mxPoint x="130" y="620" as="targetPoint" />
          </mxGeometry>
        </mxCell>
        <mxCell id="Xbeqn3pjJ_idt0biBpDb-6" value="" style="endArrow=none;dashed=1;html=1;dashPattern=1 3;strokeWidth=2;rounded=0;" edge="1" parent="1" source="jnzo3z-kXBf-AsIeAFTz-34" target="jnzo3z-kXBf-AsIeAFTz-33">
          <mxGeometry width="50" height="50" relative="1" as="geometry">
            <mxPoint x="-56" y="750" as="sourcePoint" />
            <mxPoint x="140" y="768" as="targetPoint" />
          </mxGeometry>
        </mxCell>
        <mxCell id="Xbeqn3pjJ_idt0biBpDb-7" value="" style="endArrow=none;dashed=1;html=1;dashPattern=1 3;strokeWidth=2;rounded=0;" edge="1" parent="1" source="jnzo3z-kXBf-AsIeAFTz-34" target="Xbeqn3pjJ_idt0biBpDb-8">
          <mxGeometry width="50" height="50" relative="1" as="geometry">
            <mxPoint x="10" y="800" as="sourcePoint" />
            <mxPoint x="-60" y="800" as="targetPoint" />
          </mxGeometry>
        </mxCell>
        <mxCell id="Xbeqn3pjJ_idt0biBpDb-8" value="Отображается количество съеденных блюд" style="ellipse;whiteSpace=wrap;html=1;" vertex="1" parent="1">
          <mxGeometry x="-180" y="720" width="120" height="80" as="geometry" />
        </mxCell>
        <mxCell id="Xbeqn3pjJ_idt0biBpDb-10" value="" style="endArrow=none;html=1;rounded=0;" edge="1" parent="1" source="jnzo3z-kXBf-AsIeAFTz-35" target="Xbeqn3pjJ_idt0biBpDb-9">
          <mxGeometry width="50" height="50" relative="1" as="geometry">
            <mxPoint x="-100" y="480" as="sourcePoint" />
            <mxPoint x="-330" y="480" as="targetPoint" />
          </mxGeometry>
        </mxCell>
        <mxCell id="Xbeqn3pjJ_idt0biBpDb-9" value="Авторизуется" style="ellipse;whiteSpace=wrap;html=1;" vertex="1" parent="1">
          <mxGeometry x="-300" y="450" width="120" height="80" as="geometry" />
        </mxCell>
        <mxCell id="Xbeqn3pjJ_idt0biBpDb-11" value="Администратор БД" style="shape=umlActor;verticalLabelPosition=bottom;verticalAlign=top;html=1;outlineConnect=0;" vertex="1" parent="1">
          <mxGeometry x="560" y="360" width="30" height="60" as="geometry" />
        </mxCell>
        <mxCell id="Xbeqn3pjJ_idt0biBpDb-16" value="Добавляет блюда в базу данных" style="ellipse;whiteSpace=wrap;html=1;" vertex="1" parent="1">
          <mxGeometry x="280" y="360" width="120" height="80" as="geometry" />
        </mxCell>
        <mxCell id="Xbeqn3pjJ_idt0biBpDb-17" value="" style="endArrow=none;html=1;rounded=0;" edge="1" parent="1" source="Xbeqn3pjJ_idt0biBpDb-11" target="Xbeqn3pjJ_idt0biBpDb-16">
          <mxGeometry width="50" height="50" relative="1" as="geometry">
            <mxPoint x="-289" y="495" as="sourcePoint" />
            <mxPoint x="440" y="370" as="targetPoint" />
          </mxGeometry>
        </mxCell>
        <mxCell id="Xbeqn3pjJ_idt0biBpDb-19" value="" style="endArrow=none;html=1;rounded=0;" edge="1" parent="1" source="Xbeqn3pjJ_idt0biBpDb-11" target="Xbeqn3pjJ_idt0biBpDb-20">
          <mxGeometry width="50" height="50" relative="1" as="geometry">
            <mxPoint x="630" y="352" as="sourcePoint" />
            <mxPoint x="460" y="460" as="targetPoint" />
          </mxGeometry>
        </mxCell>
        <mxCell id="Xbeqn3pjJ_idt0biBpDb-20" value="Добавляет калорийность блюд" style="ellipse;whiteSpace=wrap;html=1;" vertex="1" parent="1">
          <mxGeometry x="320" y="210" width="120" height="80" as="geometry" />
        </mxCell>
        <mxCell id="Xbeqn3pjJ_idt0biBpDb-21" value="" style="endArrow=none;dashed=1;html=1;dashPattern=1 3;strokeWidth=2;rounded=0;" edge="1" parent="1" source="Xbeqn3pjJ_idt0biBpDb-20" target="Xbeqn3pjJ_idt0biBpDb-16">
          <mxGeometry width="50" height="50" relative="1" as="geometry">
            <mxPoint x="320" y="380" as="sourcePoint" />
            <mxPoint x="170" y="380" as="targetPoint" />
          </mxGeometry>
        </mxCell>
        <mxCell id="Xbeqn3pjJ_idt0biBpDb-25" value="" style="endArrow=none;dashed=1;html=1;dashPattern=1 3;strokeWidth=2;rounded=0;endFill=0;startArrow=classic;startFill=1;" edge="1" parent="1" source="jnzo3z-kXBf-AsIeAFTz-58" target="Xbeqn3pjJ_idt0biBpDb-16">
          <mxGeometry width="50" height="50" relative="1" as="geometry">
            <mxPoint x="214" y="419" as="sourcePoint" />
            <mxPoint x="260" y="361" as="targetPoint" />
          </mxGeometry>
        </mxCell>
      </root>
    </mxGraphModel>
  </diagram>
</mxfile>
